<svg width="61" height="61" viewBox="0 0 61 61" fill="none" xmlns="http://www.w3.org/2000/svg">
<path fill-rule="evenodd" clip-rule="evenodd" d="M31.563 23.4713C36.3743 22.7475 40.063 18.596 40.063 13.583C40.063 8.06016 35.5858 3.58301 30.063 3.58301C24.5401 3.58301 20.063 8.06016 20.063 13.583C20.063 18.596 23.7517 22.7475 28.563 23.4713V14.583H31.563V23.4713ZM31.563 26.4974C38.0361 25.7537 43.063 20.2554 43.063 13.583C43.063 6.40331 37.2427 0.583008 30.063 0.583008C22.8833 0.583008 17.063 6.40331 17.063 13.583C17.063 20.2554 22.0898 25.7537 28.563 26.4974V30.7716L25.1647 27.3101L23.063 29.4509L29.0103 35.5087L30.0611 36.5791L31.1119 35.5087L37.0592 29.4509L34.9575 27.3101L31.563 30.7677V26.4974ZM56.1498 30.3376C54.3658 29.1496 51.9915 29.3847 50.4752 30.8994L47.56 33.8115L40.8601 39.1657C39.9711 38.2331 38.7167 37.652 37.3265 37.652H29.9561L26.3976 36.4671C25.6335 36.2127 24.8335 36.083 24.0282 36.083H15.3845C13.6363 36.083 11.9431 36.6936 10.5974 37.8094L1.26829 45.5444L0 46.596L1.1656 47.7603L12.9459 59.5281L14.0059 60.587L15.066 59.5281L19.3389 55.2598H38.3518H38.8895L39.3048 54.9181L52.6557 43.9349L52.8272 43.7939L52.9504 43.6092L59.2332 34.195L60.0667 32.9461L58.817 32.1139L56.1498 30.3376ZM42.2078 42.5333C42.2078 42.3379 42.1964 42.1453 42.1741 41.9559L49.4978 36.1032L49.5627 36.0513L49.6214 35.9926L52.5954 33.0219C53.1008 32.5169 53.8923 32.4386 54.4869 32.8346L55.9044 33.7786L50.5783 41.7592L37.8141 52.2598H18.7181H18.0972L17.658 52.6985L14.0059 56.3467L4.4514 46.8023L12.5122 40.1188C13.3197 39.4493 14.3356 39.083 15.3845 39.083H24.0282C24.5114 39.083 24.9914 39.1608 25.4498 39.3134L29.2391 40.5752L29.4698 40.652H29.7129H37.3265C38.3656 40.652 39.2078 41.4943 39.2078 42.5333C39.2078 43.5723 38.3656 44.4146 37.3265 44.4146H25.7862V47.4146H37.3265C40.0224 47.4146 42.2078 45.2292 42.2078 42.5333Z" fill="url(#paint0_linear)"/>
<defs>
<linearGradient id="paint0_linear" x1="30.0333" y1="0.747854" x2="30.0333" y2="61.2464" gradientUnits="userSpaceOnUse">
<stop stop-color="#9E90FF"/>
<stop offset="1" stop-color="#6E5DEC"/>
</linearGradient>
</defs>
</svg>
