<svg width="60" height="60" viewBox="0 0 60 60" fill="none" xmlns="http://www.w3.org/2000/svg">
<path fill-rule="evenodd" clip-rule="evenodd" d="M50.6758 0L51.4204 1.1278C52.1268 1.11968 52.8209 1.214 53.4842 1.40006L54.4957 0.503075L56.9274 1.90702L56.6564 3.23153C57.1492 3.71294 57.5779 4.26686 57.924 4.88259L59.2733 4.96358L60 7.67579L58.872 8.4206C58.8801 9.12685 58.7858 9.82087 58.5997 10.4841L59.497 11.496L58.093 13.9277L56.768 13.6565C56.2867 14.1492 55.733 14.5777 55.1175 14.9238L55.0365 16.2733L52.3242 17L51.5794 15.8719C50.8731 15.88 50.179 15.7857 49.5157 15.5997L48.5038 16.497L46.0721 15.093L46.3433 13.768C45.8506 13.2866 45.422 12.7328 45.0759 12.1172L43.7267 12.0362L43 9.32401L44.1279 8.57932C44.1198 7.87318 44.214 7.17926 44.4 6.51609L43.5026 5.50407L44.9065 3.07237L46.2315 3.3435C46.7129 2.85069 47.2669 2.42195 47.8826 2.0758L47.9636 0.726735L50.6758 0ZM52.674 4.28858L53.7561 4.59211L54.56 5.37747C54.852 5.66271 55.1049 5.98982 55.3089 6.35265L55.8593 7.33181L55.8722 8.455C55.877 8.87117 55.8214 9.28092 55.7112 9.67389L55.4076 10.7561L54.6222 11.56C54.337 11.8519 54.01 12.1048 53.6473 12.3087L52.6681 12.8592L51.5449 12.8721C51.1287 12.8769 50.7189 12.8214 50.3259 12.7111L49.2437 12.4076L48.4398 11.6221C48.1479 11.3369 47.8949 11.0099 47.691 10.6471L47.1406 9.66799L47.1277 8.54484C47.1229 8.12872 47.1784 7.71904 47.2886 7.32612L47.5921 6.24389L48.3775 5.43987C48.6627 5.14788 48.9898 4.8949 49.3527 4.69092L50.3318 4.14052L51.4549 4.1276C51.8712 4.12282 52.2809 4.17834 52.674 4.28858ZM51.4955 8.48769L51.4966 8.48721L51.4977 8.48711C51.4993 8.48701 51.5009 8.48708 51.5025 8.4873L51.5052 8.48786L51.5068 8.4885C51.5069 8.48859 51.5082 8.4893 51.51 8.49161C51.5109 8.49284 51.5118 8.49426 51.5125 8.49566L51.513 8.4967L51.5131 8.49783L51.5131 8.50072L51.5129 8.50262C51.5126 8.50472 51.5122 8.50594 51.5119 8.50651L51.5117 8.5069C51.5116 8.50707 51.5109 8.50829 51.5086 8.51009C51.5079 8.51065 51.5071 8.51119 51.5063 8.51169C51.5057 8.51203 51.5051 8.51236 51.5046 8.51265L51.5035 8.51313L51.5024 8.51323L51.5 8.51325L51.4976 8.51304C51.4961 8.51283 51.4951 8.51255 51.4944 8.51231L51.4933 8.51184C51.4931 8.51174 51.4919 8.51104 51.4901 8.50873C51.4892 8.50749 51.4883 8.50608 51.4876 8.50468L51.4871 8.50364L51.487 8.5025L51.487 8.5001L51.4872 8.49771C51.4873 8.49689 51.4874 8.4962 51.4876 8.49564C51.4877 8.49496 51.4879 8.49446 51.4881 8.49411L51.4884 8.49343C51.4885 8.49327 51.4892 8.49204 51.4915 8.49025C51.4921 8.48979 51.4927 8.48934 51.4934 8.48892C51.4941 8.48847 51.4948 8.48805 51.4955 8.48769ZM50.0642 8.88491C49.8517 8.0919 50.3223 7.27678 51.1153 7.06429C51.9083 6.85181 52.7234 7.32241 52.9359 8.11543C53.1484 8.90844 52.6778 9.72356 51.8848 9.93604C51.0918 10.1485 50.2767 9.67792 50.0642 8.88491ZM37.1979 17.1548L25.2857 5.24264L23.2069 7.32146L35.1191 19.2337L37.1979 17.1548ZM27.4071 3.12132L25.2857 1L23.1644 3.12132L21.0856 5.20014L18.9643 7.32146L21.0712 9.42838L21.057 9.44259L8.44243 22.0572L8.42838 22.0712L6.32146 19.9643L4.20014 22.0856L2.12132 24.1644L0 26.2857L2.12132 28.4071L14.0335 40.3193L16.1548 42.4406L18.2762 40.3193L20.355 38.2405L22.4763 36.1191L20.3689 34.0118L20.383 33.9977L22.476 31.9046L22.4905 31.9191L23.8669 33.2955L25.9882 35.4168L26.6905 34.7146L26.7045 34.7287L49.8548 57.879L51.9762 60.0003L54.0975 57.879L56.8787 55.0978L59 52.9765L56.8787 50.8552L54.7856 48.7621L54.7858 48.762L52.6644 46.6407L51.288 45.2642L49.1667 43.1429L49.1666 43.143L33.7283 27.7048L33.7143 27.6908L34.4169 26.9882L32.2955 24.8669L30.9191 23.4905L30.9046 23.476L32.9975 21.3831L33.0117 21.3689L35.1191 23.4763L37.2404 21.355L39.3193 19.2762L41.4406 17.1548L39.3193 15.0335L27.4071 3.12132ZM30.8762 19.2618L23.1783 11.5639L10.5638 24.1785L18.2616 31.8764L30.8762 19.2618ZM47.0452 45.2644L31.607 29.8261L28.8258 32.6073L44.264 48.0456L44.2642 48.0454L47.0452 45.2644ZM49.8831 53.6646L51.9762 55.7577L54.7574 52.9765L52.6643 50.8834L49.8832 53.6645L49.8831 53.6646ZM49.1666 47.3857L50.543 48.7621L47.7619 51.5432L46.3855 50.1668L49.1666 47.3857ZM18.2337 36.1191L6.32146 24.2069L4.24264 26.2857L16.1548 38.1979L18.2337 36.1191ZM28.7978 25.6118L30.1742 26.9882L25.9882 31.1742L24.6118 29.7978L28.7978 25.6118ZM24 48H6V51H24V48ZM3 51V51.126C1.27477 51.5701 0 53.1362 0 55V57V60H3H27H30V57V55C30 53.1362 28.7252 51.5701 27 51.126V51V48V45H24H6H3V48V51ZM3 55C3 54.4477 3.44772 54 4 54H6H24H26C26.5523 54 27 54.4477 27 55V57H3V55ZM50.9439 18.3238L51.0657 19.094L51.0923 19.2622C51.2622 19.3371 51.4286 19.4213 51.5905 19.5147C51.6911 19.5727 51.79 19.6343 51.887 19.6994C52.0409 19.8027 52.19 19.9149 52.3335 20.0357L52.4956 19.9858L53.2408 19.7563L54.3879 21.3612L53.9294 21.992L53.8298 22.1291C53.8977 22.304 53.9555 22.4814 54.0034 22.6605C54.0336 22.7734 54.0599 22.8869 54.0822 23.001C54.1182 23.1843 54.144 23.3689 54.1598 23.5538L54.3107 23.6337L54.9999 23.9983L54.6762 25.9443L53.906 26.0662L53.7373 26.0928C53.6625 26.2627 53.5783 26.4289 53.4849 26.5908C53.4269 26.6914 53.3653 26.7903 53.3002 26.8873C53.197 27.0411 53.0849 27.1901 52.9641 27.3336L53.0141 27.496L53.2437 28.2413L51.6387 29.3883L51.0079 28.9299L50.8705 28.83C50.6957 28.8978 50.5183 28.9557 50.3394 29.0035C50.2265 29.0337 50.113 29.06 49.999 29.0823C49.8156 29.1183 49.631 29.1441 49.446 29.1599L49.3663 29.3107L49.0016 29.9999L47.0556 29.6762L46.9338 28.906L46.9072 28.7376C46.7373 28.6627 46.571 28.5786 46.409 28.4852C46.3084 28.4271 46.2095 28.3655 46.1125 28.3004C45.9587 28.1972 45.8096 28.085 45.6661 27.9642L45.5039 28.0141L44.7587 28.2437L43.6116 26.6387L44.0701 26.0079L44.1698 25.8708C44.1019 25.6959 44.0441 25.5185 43.9962 25.3395C43.966 25.2267 43.9397 25.1132 43.9174 24.9993C43.8814 24.8158 43.8556 24.6311 43.8398 24.4461L43.6893 24.3665L43 24.0018L43.3238 22.0559L44.094 21.934L44.2621 21.9074C44.3369 21.7375 44.4212 21.5711 44.5146 21.4092C44.5726 21.3086 44.6342 21.2097 44.6993 21.1127C44.8025 20.9589 44.9146 20.8098 45.0354 20.6664L44.9854 20.5039L44.7558 19.7587L46.3608 18.6116L46.9916 19.0701L47.1289 19.1699C47.3038 19.1021 47.4811 19.0442 47.6601 18.9963C47.773 18.9661 47.8865 18.9399 48.0005 18.9175C48.1839 18.8816 48.3685 18.8558 48.5535 18.84L48.6332 18.6893L48.9979 18L50.9439 18.3238ZM48.8092 21.829L49.3688 21.7812L49.8828 22.0076C50.0689 22.0896 50.2433 22.1976 50.401 22.3304L50.8301 22.6917L51.0331 23.2147C51.1077 23.4068 51.1534 23.6069 51.1707 23.8094L51.2185 24.3691L50.992 24.8831C50.9101 25.0691 50.8021 25.2435 50.6694 25.4011L50.308 25.8303L49.785 26.0333C49.5929 26.1078 49.3929 26.1535 49.1904 26.1708L48.6307 26.2187L48.1167 25.9922C47.9307 25.9103 47.7562 25.8023 47.5986 25.6695L47.1695 25.3082L46.9665 24.7852C46.8919 24.593 46.8462 24.393 46.8289 24.1905L46.781 23.6309L47.0075 23.1169C47.0894 22.9309 47.1974 22.7564 47.3301 22.5988L47.6915 22.1696L48.2145 21.9666C48.4067 21.892 48.6067 21.8464 48.8092 21.829Z" fill="url(#paint0_linear)"/>
<defs>
<linearGradient id="paint0_linear" x1="30" y1="0.164836" x2="30" y2="60.6597" gradientUnits="userSpaceOnUse">
<stop stop-color="#9E90FF"/>
<stop offset="1" stop-color="#6E5DEC"/>
</linearGradient>
</defs>
</svg>
