<svg width="60" height="60" viewBox="0 0 60 60" fill="none" xmlns="http://www.w3.org/2000/svg">
<path fill-rule="evenodd" clip-rule="evenodd" d="M14.2467 7.00051L19.1374 2.11928L17.014 0L11.0617 5.94088L10 7.00051L11.0617 8.06015L17.014 14.001L19.1374 11.8818L14.2467 7.00051ZM45.759 7.00102L40.8683 11.8823L42.9917 14.0015L48.944 8.06066L50.0057 7.00102L48.944 5.94138L42.9917 0.000503023L40.8683 2.11978L45.759 7.00102ZM28.5 8.5L31.5 8.5L31.5 5.5H28.5L28.5 8.5ZM37.5 8.5603L34.5 8.5603V5.5603H37.5V8.5603ZM3 31.0001V57.0001H57V31.0001H35V28.0001H57V21.0001H35V18.0001H57H60V21.0001V58.5001V60.0001H58.5H1.5H0V58.5001V21.0001V18.0001H3H25V21.0001H3V28.0001H25V31.0001H3ZM51 26.0001H54V23.0001H51V26.0001ZM48 26.0001H45V23.0001H48V26.0001ZM31.5004 18.0001V41.1844L34.8945 37.7271L36.9962 39.8679L31.049 45.9258L29.9981 46.9961L28.9473 45.9258L23 39.8679L25.1017 37.7271L28.5004 41.189V18.0001H31.5004ZM25.5 8.5603L22.5 8.5603L22.5 5.5603H25.5L25.5 8.5603Z" fill="url(#paint0_linear)"/>
<defs>
<linearGradient id="paint0_linear" x1="30" y1="0.164835" x2="30" y2="60.6593" gradientUnits="userSpaceOnUse">
<stop stop-color="#9E90FF"/>
<stop offset="1" stop-color="#6E5DEC"/>
</linearGradient>
</defs>
</svg>
