<svg width="60" height="61" viewBox="0 0 60 61" fill="none" xmlns="http://www.w3.org/2000/svg">
<path fill-rule="evenodd" clip-rule="evenodd" d="M57 3.58301H3V39.583H57V3.58301ZM3 46.583V42.583H57V46.583H37H34H26H23H3ZM23 49.583H3H0V46.583V42.583V39.583V3.58301V0.583008H3H57H60V3.58301V39.583V42.583V46.583V49.583H57H37V57.583H40V60.583H37H34H26H23H20V57.583H23V49.583ZM34 49.583V57.583H26V49.583H34ZM32 16.583H51V13.583H32V16.583ZM51 22.583H32V19.583H51V22.583ZM32 28.583H51V25.583H32V28.583ZM18 17.583C19.1046 17.583 20 16.6876 20 15.583C20 14.4784 19.1046 13.583 18 13.583C16.8954 13.583 16 14.4784 16 15.583C16 16.6876 16.8954 17.583 18 17.583ZM22.0014 18.5816C22.6285 17.7462 23 16.708 23 15.583C23 12.8216 20.7614 10.583 18 10.583C15.2386 10.583 13 12.8216 13 15.583C13 16.7081 13.3716 17.7463 13.9987 18.5818C11.1946 20.069 9.22082 23.0704 9.01775 26.583C9.00628 26.7814 9.00046 26.9815 9.00046 27.183L9.00029 28.083L9 29.583H12H24H27V28.083V27.183C27 26.9815 26.9942 26.7814 26.9827 26.583C26.7796 23.0703 24.8057 20.0687 22.0014 18.5816ZM12.0307 26.583H12.0242C12.3051 23.0667 15.0323 20.583 18.0002 20.583C20.9682 20.583 23.6954 23.0667 23.9762 26.583H23.9713H23.9355H23.8996H23.8636H23.8276H23.7914H23.7552H23.7188H23.6824H23.6459H23.6093H23.5727H23.5359H23.4991H23.4622H23.4252H23.3881H23.351H23.3138H23.2765H23.2391H23.2016H23.1641H23.1265H23.0888H23.0511H23.0132H22.9753H22.9374H22.8993H22.8612H22.823H22.7848H22.7465H22.7081H22.6696H22.6311H22.5925H22.5539H22.5151H22.4763H22.4375H22.3986H22.3596H22.3206H22.2815H22.2423H22.2031H22.1638H22.1245H22.0851H22.0457H22.0062H21.9666H21.927H21.8873H21.8476H21.8078H21.768H21.7281H21.6881H21.6481H21.6081H21.568H21.5279H21.4877H21.4474H21.4072H21.3668H21.3265H21.286H21.2456H21.2051H21.1645H21.1239H21.0833H21.0426H21.0019H20.9611H20.9203H20.8794H20.8386H20.7976H20.7567H20.7157H20.6747H20.6336H20.5925H20.5514H20.5102H20.469H20.4277H20.3865H20.3452H20.3039H20.2625H20.2211H20.1797H20.1383H20.0968H20.0553H20.0138H19.9722H19.9306H19.889H19.8474H19.8058H19.7641H19.7224H19.6807H19.639H19.5972H19.5555H19.5137H19.4719H19.43H19.3882H19.3463H19.3045H19.2626H19.2207H19.1788H19.1368H19.0949H19.0529H19.011H18.969H18.927H18.885H18.843H18.801H18.759H18.717H18.6749H18.6329H18.5909H18.5488H18.5068H18.4647H18.4227H18.3806H18.3386H18.2965H18.2544H18.2124H18.1703H18.1283H18.0862H18.0442H18.0021H17.9601H17.9181H17.876H17.834H17.792H17.75H17.708H17.666H17.624H17.5821H17.5401H17.4982H17.4562H17.4143H17.3724H17.3305H17.2886H17.2468H17.2049H17.1631H17.1213H17.0795H17.0377H16.9959H16.9542H16.9125H16.8708H16.8291H16.7874H16.7458H16.7042H16.6626H16.621H16.5795H16.538H16.4965H16.455H16.4136H16.3722H16.3308H16.2895H16.2482H16.2069H16.1656H16.1244H16.0832H16.0421H16.001H15.9599H15.9188H15.8778H15.8368H15.7959H15.755H15.7141H15.6733H15.6325H15.5918H15.5511H15.5104H15.4698H15.4292H15.3887H15.3482H15.3077H15.2673H15.227H15.1867H15.1464H15.1062H15.066H15.0259H14.9858H14.9458H14.9059H14.8659H14.8261H14.7863H14.7465H14.7068H14.6672H14.6276H14.588H14.5486H14.5091H14.4698H14.4305H14.3912H14.352H14.3129H14.2738H14.2348H14.1959H14.157H14.1182H14.0794H14.0407H14.0021H13.9636H13.9251H13.8866H13.8483H13.81H13.7718H13.7336H13.6956H13.6575H13.6196H13.5817H13.5439H13.5062H13.4686H13.431H13.3935H13.3561H13.3188H13.2815H13.2443H13.2072H13.1702H13.1332H13.0964H13.0596H13.0229H12.9862H12.9497H12.9132H12.8769H12.8406H12.8044H12.7682H12.7322H12.6963H12.6604H12.6246H12.589H12.5534H12.5179H12.4825H12.4471H12.4119H12.3768H12.3417H12.3068H12.2719H12.2372H12.2025H12.168H12.1335H12.0991H12.0649H12.0307Z" fill="url(#paint0_linear)"/>
<defs>
<linearGradient id="paint0_linear" x1="30" y1="0.747843" x2="30" y2="61.2423" gradientUnits="userSpaceOnUse">
<stop stop-color="#9E90FF"/>
<stop offset="1" stop-color="#6E5DEC"/>
</linearGradient>
</defs>
</svg>
