<svg width="60" height="61" viewBox="0 0 60 61" fill="none" xmlns="http://www.w3.org/2000/svg">
<path fill-rule="evenodd" clip-rule="evenodd" d="M28 20.583C28 13.3578 22.5267 7.41088 15.5 6.66243V6.08301C15.5 4.7023 16.6193 3.58301 18 3.58301L26 3.58301C27.3807 3.58301 28.5 4.7023 28.5 6.08301V7.33301C28.5 9.95636 30.6266 12.083 33.25 12.083C35.8734 12.083 38 9.95636 38 7.33301V6.08301C38 4.7023 39.1193 3.58301 40.5 3.58301H41C42.3807 3.58301 43.5 4.7023 43.5 6.08301L43.5 19.5918C35.9996 19.855 30 26.0184 30 33.583V46.583C30 54.315 36.268 60.583 44 60.583H46C53.732 60.583 60 54.315 60 46.583V33.583C60 26.0184 54.0004 19.8551 46.5 19.5918L46.5 6.08301C46.5 3.04544 44.0376 0.583008 41 0.583008H40.5C37.4624 0.583008 35 3.04544 35 6.08301V7.33301C35 8.29951 34.2165 9.08301 33.25 9.08301C32.2835 9.08301 31.5 8.29951 31.5 7.33301V6.08301C31.5 3.04544 29.0376 0.583008 26 0.583008H18C14.9624 0.583008 12.5 3.04544 12.5 6.08301V6.66243C5.47335 7.41088 0 13.3578 0 20.583C0 28.315 6.26801 34.583 14 34.583C21.732 34.583 28 28.315 28 20.583ZM33 33.583C33 27.6754 37.6569 22.8556 43.5 22.5942V23.8119C41.4715 24.449 40 26.3442 40 28.583V30.583C40 32.8218 41.4714 34.717 43.5 35.3541V36.583H33V33.583ZM46.5 36.583H57V33.583C57 27.6755 52.3431 22.8556 46.5 22.5942L46.5 23.8119C48.5286 24.4491 50 26.3442 50 28.583V30.583C50 32.8218 48.5286 34.717 46.5 35.3541V36.583ZM45 32.583C46.1046 32.583 47 31.6876 47 30.583V28.583C47 27.4784 46.1046 26.583 45 26.583C43.8954 26.583 43 27.4784 43 28.583V30.583C43 31.6876 43.8954 32.583 45 32.583ZM33 39.583V46.583C33 52.6581 37.9249 57.583 44 57.583H46C52.0751 57.583 57 52.6581 57 46.583V39.583H33ZM52 44.583V46.083C52 49.6729 49.0899 52.583 45.5 52.583H45V55.583H45.5C50.7467 55.583 55 51.3297 55 46.083V44.583H52ZM14 31.583C20.0751 31.583 25 26.6581 25 20.583C25 14.5079 20.0751 9.58301 14 9.58301C7.92487 9.58301 3 14.5079 3 20.583C3 26.6581 7.92487 31.583 14 31.583ZM11 12.083H9.5V13.583V21.583V24.083H8V27.083H9.5V28.583H12.5V27.083H15V24.083H12.5V23.083H15C18.0376 23.083 20.5 20.6206 20.5 17.583C20.5 14.5454 18.0376 12.083 15 12.083H11ZM15 20.083H12.5V15.083H15C16.3807 15.083 17.5 16.2023 17.5 17.583C17.5 18.9637 16.3807 20.083 15 20.083ZM54.3707 13.6922L52.3707 18.1922L49.6293 16.9738L51.6293 12.4738L54.3707 13.6922ZM56.5607 20.6437L59.5607 17.6437L57.4393 15.5223L54.4393 18.5223L56.5607 20.6437ZM35.6303 13.6922L37.6303 18.1922L40.3717 16.9738L38.3717 12.4738L35.6303 13.6922ZM33.4393 21.1437L30.4393 18.1437L32.5607 16.0223L35.5607 19.0224L33.4393 21.1437Z" fill="url(#paint0_linear)"/>
<defs>
<linearGradient id="paint0_linear" x1="30" y1="0.747843" x2="30" y2="61.2423" gradientUnits="userSpaceOnUse">
<stop stop-color="#9E90FF"/>
<stop offset="1" stop-color="#6E5DEC"/>
</linearGradient>
</defs>
</svg>
